<?xml version="1.0" encoding="UTF-8" standalone="no"?>
<!-- Created with Inkscape (http://www.inkscape.org/) -->

<svg
   xmlns:dc="http://purl.org/dc/elements/1.1/"
   xmlns:cc="http://creativecommons.org/ns#"
   xmlns:rdf="http://www.w3.org/1999/02/22-rdf-syntax-ns#"
   xmlns:svg="http://www.w3.org/2000/svg"
   xmlns="http://www.w3.org/2000/svg"
   xmlns:sodipodi="http://sodipodi.sourceforge.net/DTD/sodipodi-0.dtd"
   xmlns:inkscape="http://www.inkscape.org/namespaces/inkscape"
   width="1279"
   height="191"
   viewBox="0 0 1279 191"
   id="svg2"
   version="1.1"
   inkscape:version="0.91 r13725"
   sodipodi:docname="nypost.svg">
  <defs
     id="defs4" />
  <sodipodi:namedview
     id="base"
     pagecolor="#ffffff"
     bordercolor="#666666"
     borderopacity="1.0"
     inkscape:pageopacity="0.0"
     inkscape:pageshadow="2"
     inkscape:zoom="0.5340016"
     inkscape:cx="518.65726"
     inkscape:cy="271.39201"
     inkscape:document-units="px"
     inkscape:current-layer="layer1"
     showgrid="false"
     units="px"
     inkscape:window-width="1366"
     inkscape:window-height="719"
     inkscape:window-x="0"
     inkscape:window-y="25"
     inkscape:window-maximized="1" />
  <metadata
     id="metadata7">
    <rdf:RDF>
      <cc:Work
         rdf:about="">
        <dc:format>image/svg+xml</dc:format>
        <dc:type
           rdf:resource="http://purl.org/dc/dcmitype/StillImage" />
        <dc:title></dc:title>
      </cc:Work>
    </rdf:RDF>
  </metadata>
  <g
     inkscape:label="Layer 1"
     inkscape:groupmode="layer"
     id="layer1"
     transform="translate(0,-861.36216)">
    <path
       style="opacity:1;fill:#ffffff;fill-opacity:1;fill-rule:nonzero;stroke:none;stroke-width:0;stroke-linecap:butt;stroke-linejoin:miter;stroke-miterlimit:4;stroke-dasharray:none;stroke-dashoffset:0;stroke-opacity:1"
       d="m 876.65764,91.045836 c 9.27052,-33.137255 18.06866,-64.749363 19.55141,-70.249129 l 2.69591,-9.999575 40.23431,0.730413 40.23431,0.730413 3.58741,7.491984 c 3.13904,6.555621 2.8553,10.45489 -2.27028,31.198595 -11.44966,46.337813 -20.08388,55.690473 -53.4341,57.880273 l -21.58715,1.41743 -6.23074,20.52458 -6.23074,20.52457 -16.70292,0 -16.70293,0 16.85551,-60.249554 z m 62.92935,-20.524573 c 2.84377,-5.826331 5.22727,-15.956201 5.29667,-22.510823 0.12169,-11.493851 -0.17416,-11.946573 -8.32232,-12.735543 -9.18976,-0.889824 -7.57458,-4.160538 -21.08806,42.703073 -1.19456,4.142662 0.0207,4.692651 8.77834,3.972498 8.90588,-0.732346 10.80528,-2.147943 15.33537,-11.429205 z"
       id="path4213"
       inkscape:connector-curvature="0"
       transform="translate(0,861.36216)" />
    <path
       style="opacity:1;fill:#ffffff;fill-opacity:1;fill-rule:nonzero;stroke:none;stroke-width:0;stroke-linecap:butt;stroke-linejoin:miter;stroke-miterlimit:4;stroke-dasharray:none;stroke-dashoffset:0;stroke-opacity:1"
       d="m 982.12151,155.24815 c -21.45903,-7.64144 -21.87679,-15.34299 -4.23833,-78.134341 12.46807,-44.385206 13.46164,-46.718532 23.81592,-55.929566 17.4677,-15.5390911 46.9932,-20.0603567 68.1795,-10.440376 8.2792,3.759298 11.4169,6.931607 12.7188,12.859176 1.9435,8.849072 -4.4578,36.33776 -18.9432,81.346537 -7.7719,24.14831 -11.107,30.78733 -19.4966,38.81045 -15.0319,14.3752 -40.621,19.11392 -62.03609,11.48812 z m 39.46489,-31.09816 c 4.2492,-6.54333 21.9027,-67.425947 23.2293,-80.112048 0.7532,-7.203622 0.043,-8.0213 -7.6133,-8.762713 -11.3106,-1.095314 -14.0189,3.626257 -25.7424,44.87819 -9.3491,32.897451 -11.2446,44.690601 -7.7455,48.189761 3.8791,3.87908 14.2028,1.45688 17.8719,-4.19319 z"
       id="path4215"
       inkscape:connector-curvature="0"
       transform="translate(0,861.36216)" />
    <path
       style="opacity:1;fill:#ffffff;fill-opacity:1;fill-rule:nonzero;stroke:none;stroke-width:0;stroke-linecap:butt;stroke-linejoin:miter;stroke-miterlimit:4;stroke-dasharray:none;stroke-dashoffset:0;stroke-opacity:1"
       d="m 1174.0905,150.22965 c 0,-1.28768 27.7766,-101.644673 30.6743,-110.826289 1.2289,-3.893991 -0.2586,-4.634581 -9.3091,-4.634581 -11.9287,0 -11.8726,0.09768 -7.9842,-13.903743 l 2.758,-9.931245 39.779,0 c 36.6437,0 39.6704,0.365285 38.4021,4.634581 -0.7573,2.549019 -2.1433,7.851249 -3.0801,11.782733 -1.5071,6.32505 -3.1138,7.239907 -13.9531,7.944997 l -12.2499,0.796843 -16.228,56.939139 -16.228,56.939135 -16.2905,0.78846 c -8.9597,0.43365 -16.2905,0.19514 -16.2905,-0.53003 z"
       id="path4219"
       inkscape:connector-curvature="0"
       transform="translate(0,861.36216)" />
    <path
       style="opacity:1;fill:#ffffff;fill-opacity:1;fill-rule:nonzero;stroke:none;stroke-width:0;stroke-linecap:butt;stroke-linejoin:miter;stroke-miterlimit:4;stroke-dasharray:none;stroke-dashoffset:0;stroke-opacity:1"
       d="m 1174.2733,149.69405 c 0,-1.45383 6.7415,-26.87482 14.9812,-56.491075 8.2397,-29.616257 14.9812,-54.47452 14.9812,-55.240583 0,-0.766061 -4.2134,-1.951777 -9.3632,-2.634921 -10.5265,-1.39638 -10.9692,-2.440294 -7.2683,-17.137716 l 2.0949,-8.3198631 37.6989,0.028676 c 20.7345,0.015768 38.7649,0.7052655 40.0676,1.5322075 1.8752,1.19032 1.6661,3.817572 -1.0037,12.611737 l -3.3724,11.108203 -11.9236,0.936327 -11.9236,0.936327 -16.2848,57.115933 -16.2849,57.115938 -16.1996,0.54107 c -12.9557,0.43272 -16.1997,0.0117 -16.1997,-2.10226 z"
       id="path4233"
       inkscape:connector-curvature="0"
       transform="translate(0,861.36216)" />
    <path
       style="opacity:1;fill:#ffffff;fill-opacity:1;fill-rule:nonzero;stroke:none;stroke-width:0;stroke-linecap:butt;stroke-linejoin:miter;stroke-miterlimit:4;stroke-dasharray:none;stroke-dashoffset:0;stroke-opacity:1"
       d="m 1081.5769,155.52202 c -15.1416,-5.36839 -21.0435,-15.28637 -18.8657,-31.7032 0.6735,-5.07712 2.1689,-11.30393 3.3233,-13.83736 1.999,-4.38753 2.8847,-4.60624 18.652,-4.60624 l 16.5533,0 0,7.33746 c 0,10.91482 1.4605,13.26173 8.2527,13.26173 16.6754,0 13.4109,-17.03961 -8.2517,-43.071029 -12.1941,-14.653464 -14.9714,-20.573877 -14.9341,-31.835111 0.043,-12.924774 4.7035,-23.424334 14.0348,-31.617271 10.5036,-9.222314 18.4445,-11.8822178 38.4877,-12.8920288 15.3584,-0.7737795 19.1905,-0.3441091 26.7486,2.9992075 12.1758,5.3859403 15.5166,13.2461403 12.7432,29.9825783 -2.8643,17.286053 -5.2973,19.285317 -22.6618,18.622334 l -14.1574,-0.540532 0.6054,-5.174112 c 0.333,-2.845761 -0.3644,-8.112599 -1.5497,-11.704085 -2.4931,-7.554206 -8.5413,-8.857241 -13.8555,-2.985077 -2.8628,3.163378 -2.9254,4.22148 -0.5812,9.831431 1.4449,3.457595 8.7469,13.449435 16.2267,22.204091 17.0936,20.006816 19.5407,25.464041 18.3076,40.826464 -1.6854,20.99657 -16.3519,37.53463 -39.3415,44.36181 -10.8339,3.21733 -31.3957,3.4962 -39.7367,0.53894 z"
       id="path4231"
       inkscape:connector-curvature="0"
       transform="translate(0,861.36216)" />
    <path
       style="opacity:1;fill:#ffffff;fill-opacity:1;fill-rule:nonzero;stroke:none;stroke-width:0;stroke-linecap:butt;stroke-linejoin:miter;stroke-miterlimit:4;stroke-dasharray:none;stroke-dashoffset:0;stroke-opacity:1"
       d="m 989.4918,157.83518 c -17.60936,-3.72695 -24.9592,-10.89086 -24.94978,-24.31867 0.006,-8.68258 7.64738,-39.722254 19.60547,-79.639259 6.19283,-20.672139 7.43986,-23.159633 15.57098,-31.059866 13.05693,-12.686138 26.58213,-17.2610086 48.15073,-16.2867844 16.7533,0.7567287 25.0459,3.3719049 31.6577,9.9836844 4.2195,4.219556 3.8405,20.284839 -0.9182,38.923041 -6.0964,23.877049 -20.2703,68.481014 -24.2242,76.231444 -10.0079,19.61701 -39.5515,31.52977 -64.8927,26.16641 z m 29.254,-31.76353 c 6.0474,-6.04741 28.0239,-80.955856 25.6022,-87.266798 -1.1125,-2.898995 -11.6604,-3.723264 -15.6007,-1.219124 -3.618,2.299227 -9.2844,16.672954 -16.3694,41.523364 -8.9111,31.255478 -11.2348,44.525848 -8.3955,47.946908 3.1417,3.7856 10.4829,3.29613 14.7634,-0.98435 z"
       id="path4229"
       inkscape:connector-curvature="0"
       transform="translate(0,861.36216)" />
    <path
       style="opacity:1;fill:#ffffff;fill-opacity:1;fill-rule:nonzero;stroke:none;stroke-width:0;stroke-linecap:butt;stroke-linejoin:miter;stroke-miterlimit:4;stroke-dasharray:none;stroke-dashoffset:0;stroke-opacity:1"
       d="m 859.66747,151.06391 c 0,-1.01679 36.6111,-133.255361 38.4424,-138.853201 0.57252,-1.750046 8.74914,-2.3408171 32.3983,-2.3408171 42.09805,0 48.42788,0.9346321 51.90802,7.6644801 3.92485,7.589826 3.38572,14.990488 -2.80782,38.542666 -5.72972,21.788465 -12.18026,36.751399 -18.18071,42.172767 -7.02014,6.342645 -20.06881,10.783485 -32.472,11.051165 -23.07756,0.49803 -22.31661,-0.0904 -29.43131,22.75957 l -6.26811,20.13102 -16.79438,0 c -9.23691,0 -16.79439,-0.50744 -16.79439,-1.12765 z m 72.02378,-71.200473 c 5.96082,-2.287383 11.02171,-15.757964 11.1701,-29.731494 l 0.13921,-13.108574 -6.67967,-0.560772 c -5.60474,-0.470529 -7.02745,0.202539 -8.84084,4.182491 -2.25348,4.945847 -11.63297,36.310494 -11.63297,38.90019 0,1.760224 11.4852,1.99085 15.84417,0.318159 z"
       id="path4227"
       inkscape:connector-curvature="0"
       transform="translate(0,861.36216)" />
    <path
       style="opacity:1;fill:#ffffff;fill-opacity:1;fill-rule:nonzero;stroke:none;stroke-width:0;stroke-linecap:butt;stroke-linejoin:miter;stroke-miterlimit:4;stroke-dasharray:none;stroke-dashoffset:0;stroke-opacity:1"
       d="m 708.44925,149.91876 c 0.50579,-1.32486 9.60207,-32.32447 20.21395,-68.888033 10.61188,-36.563561 20.57335,-67.532569 22.1366,-68.820018 4.01513,-3.3067588 33.96153,-3.2353722 33.96153,0.08096 0,1.331976 -2.1503,9.838898 -4.77844,18.904271 -2.62814,9.065374 -4.48742,17.355576 -4.13172,18.422672 0.3557,1.067096 8.94031,-7.439826 19.07692,-18.904271 l 18.43019,-20.8444471 15.66398,0 c 11.31886,0 15.66399,0.6521521 15.66399,2.3509771 0,1.293038 -10.10716,15.292144 -22.46034,31.109125 -25.78338,33.012964 -23.8968,24.513394 -15.43436,69.535846 2.61349,13.90445 5.13747,28.47141 5.60885,32.37103 l 0.85705,7.0902 -19.37519,-0.53592 -19.37519,-0.53591 -4.16053,-23.40817 c -6.72872,-37.857454 -5.16428,-39.139679 -22.84808,18.72653 -1.39004,4.54859 -1.97831,4.69687 -20.69976,5.21781 -15.09895,0.42014 -19.07005,0.0148 -18.34945,-1.87265 z"
       id="path4225"
       inkscape:connector-curvature="0"
       transform="translate(0,861.36216)" />
    <path
       style="opacity:1;fill:#ffffff;fill-opacity:1;fill-rule:nonzero;stroke:none;stroke-width:0;stroke-linecap:butt;stroke-linejoin:miter;stroke-miterlimit:4;stroke-dasharray:none;stroke-dashoffset:0;stroke-opacity:1"
       d="m 607.51994,151.21222 c -1.29907,-3.38532 0.44429,-10.64704 20.30458,-84.576073 L 643.01054,10.10686 654.53239,8.872974 c 6.33702,-0.6786373 24.2667,-0.9426286 39.84372,-0.5866474 25.25031,0.5770442 28.89479,1.0735045 33.60456,4.5776974 3.61623,2.690571 5.47864,5.937283 5.90386,10.292116 1.61073,16.496134 -10.35728,50.373705 -19.22263,54.413026 -5.53172,2.52042 -5.671,3.097708 -1.93817,8.032952 1.51218,1.999284 2.74942,5.858437 2.74942,8.575896 0,3.919199 -8.95335,39.559266 -14.2211,56.609056 -0.87004,2.816 -3.48255,3.27715 -18.56601,3.27715 -9.65443,0 -17.97542,-0.68269 -18.49111,-1.5171 -0.51569,-0.8344 1.04571,-9.47201 3.46977,-19.1947 8.40501,-33.711666 8.21653,-37.237152 -1.99479,-37.311788 -6.46561,-0.04727 -9.51362,5.375578 -16.82542,29.934788 -3.83284,12.87394 -7.78779,24.46053 -8.78877,25.74798 -2.82915,3.63883 -31.1138,3.19444 -32.53578,-0.51118 z m 77.7388,-86.840029 c 1.40636,-0.890977 3.73307,-6.144912 5.17046,-11.675411 2.3759,-9.141487 2.32372,-10.268212 -0.57412,-12.396268 -1.75317,-1.287449 -5.94346,-2.340817 -9.31176,-2.340817 -5.63706,0 -6.28617,0.633058 -8.16059,7.958778 -1.12001,4.377328 -2.83788,10.401935 -3.81748,13.388018 -0.9796,2.986083 -1.78109,5.724838 -1.78109,6.086124 0,1.399048 16.05533,0.512247 18.47458,-1.020424 z"
       id="path4223"
       inkscape:connector-curvature="0"
       transform="translate(0,861.36216)" />
    <path
       style="opacity:1;fill:#ffffff;fill-opacity:1;fill-rule:nonzero;stroke:none;stroke-width:0;stroke-linecap:butt;stroke-linejoin:miter;stroke-miterlimit:4;stroke-dasharray:none;stroke-dashoffset:0;stroke-opacity:1"
       d="m 520.54355,153.45047 c -13.55112,-7.15712 -14.5289,-10.63849 -9.39014,-33.43351 8.9965,-39.907593 22.99934,-85.692031 28.55309,-93.358768 11.39578,-15.731407 26.68697,-22.4545848 50.8592,-22.3615856 15.98269,0.061491 25.37614,2.5679273 31.10151,8.2987536 8.12448,8.132217 6.64737,20.50999 -8.8372,74.053328 l -13.26835,45.880012 -8.99865,8.58802 c -12.31038,11.74865 -25.99809,16.6928 -46.21337,16.6928 -12.67051,0 -17.08229,-0.80782 -23.80609,-4.35905 z m 46.93321,-33.56218 c 5.19961,-11.89855 23.00224,-79.865893 21.76423,-83.092074 -0.77294,-2.014255 -3.30596,-2.637191 -9.03594,-2.222175 -6.7385,0.488062 -8.37485,1.439926 -10.64917,6.194635 -4.68212,9.788476 -24.46361,81.233844 -23.31815,84.218854 0.75649,1.97139 3.6851,2.85954 9.42919,2.85954 8.00823,0 8.467,-0.30917 11.80984,-7.95878 z"
       id="path4221"
       inkscape:connector-curvature="0"
       transform="translate(0,861.36216)" />
    <path
       style="opacity:1;fill:#ffffff;fill-opacity:1;fill-rule:nonzero;stroke:none;stroke-width:0;stroke-linecap:butt;stroke-linejoin:miter;stroke-miterlimit:4;stroke-dasharray:none;stroke-dashoffset:0;stroke-opacity:1"
       d="m 445.13715,152.11816 c -5.88318,-1.53744 -5.90738,-1.17068 2.10518,-31.90757 l 6.73976,-25.854339 -4.17233,-33.10415 c -2.29478,-18.207283 -4.86442,-36.977337 -5.71033,-41.71123 l -1.538,-8.607079 17.14,0 17.14001,0 1.67003,13.903743 c 0.91852,7.647059 1.70279,18.670741 1.74282,24.497071 l 0.0728,10.593329 15.99414,-24.497072 15.99413,-24.497071 15.73609,0 c 8.65485,0 15.7361,0.714346 15.7361,1.587437 0,0.87309 -12.36854,19.748703 -27.48564,41.945805 -24.24681,35.602659 -28.3428,43.295407 -34.75979,65.282946 -9.83817,33.71005 -10.18972,34.25321 -21.9323,33.88653 -5.41093,-0.16896 -11.92362,-0.85222 -14.47264,-1.51835 z"
       id="path4207"
       inkscape:connector-curvature="0"
       transform="translate(0,861.36216)" />
    <path
       style="opacity:1;fill:#ffffff;fill-opacity:1;fill-rule:nonzero;stroke:none;stroke-width:0;stroke-linecap:butt;stroke-linejoin:miter;stroke-miterlimit:4;stroke-dasharray:none;stroke-dashoffset:0;stroke-opacity:1"
       d="m 165.60997,151.99834 c -9.16892,-0.82158 -11.1383,-1.89082 -10.12289,-5.49606 1.80807,-6.41954 29.82058,-110.895247 33.3314,-124.313077 l 2.94503,-11.255411 55.26089,0 55.26089,0 -1.20498,9.931245 c -1.79118,14.762751 -5.24069,53.628724 -4.75976,53.628724 0.22961,0 7.36084,-14.300993 15.84719,-31.779985 l 15.42973,-31.779984 16.93799,0 16.93799,0 -1.41705,7.282913 c -0.77938,4.005602 -2.15522,18.008658 -3.05743,31.117901 -1.62824,23.658774 -1.60464,23.783111 3.19288,16.817685 2.65829,-3.859518 10.14334,-17.862573 16.63345,-31.117902 l 11.80021,-24.100597 14.02103,0 c 7.71157,0 13.98807,0.893812 13.94776,1.986249 -0.0403,1.092437 -14.72345,32.375859 -32.6292,69.518716 l -32.5559,67.532463 -15.51783,1.9506 c -8.5348,1.07283 -16.0267,1.44172 -16.64867,0.81976 -0.62196,-0.62196 0.6061,-18.18422 2.72902,-39.02724 2.12292,-20.84303 3.68473,-38.150589 3.47068,-38.461249 -0.21404,-0.31066 -7.9564,15.777957 -17.20523,35.752479 -9.24882,19.97453 -17.97938,37.80701 -19.40123,39.62774 -2.7827,3.56335 -29.93736,4.68932 -31.93446,1.32416 -0.64832,-1.09243 0.42759,-25.22536 2.39092,-53.628721 1.96333,-28.403361 3.61519,-54.374041 3.6708,-57.712621 0.0979,-5.879657 -0.54298,-6.045875 -20.42346,-5.296664 l -20.52457,0.773482 -4.42226,13.24166 c -2.43224,7.282914 -4.5178,14.135473 -4.63458,15.22791 -0.11679,1.092437 8.25912,1.986249 18.6131,1.986249 18.66788,0 18.81177,0.05442 17.19302,6.504031 -4.96144,19.76795 -5.2286,19.979289 -25.25697,19.979289 l -18.50127,0 -4.0751,13.722335 c -6.28333,21.15826 -6.63436,20.70598 16.07074,20.70598 18.13653,0 19.95848,0.46224 18.26744,4.63458 -1.03311,2.54902 -3.00781,7.74835 -4.38822,11.55406 -2.2225,6.12732 -4.35827,7.11268 -18.65593,8.60708 -16.18994,1.69218 -25.42309,1.64112 -46.61517,-0.25779 z"
       id="path4205"
       inkscape:connector-curvature="0"
       transform="translate(0,861.36216)" />
    <path
       style="opacity:1;fill:#ffffff;fill-opacity:1;fill-rule:nonzero;stroke:none;stroke-width:0;stroke-linecap:butt;stroke-linejoin:miter;stroke-miterlimit:4;stroke-dasharray:none;stroke-dashoffset:0;stroke-opacity:1"
       d="m 47.777773,152.09278 c -0.688319,-1.16686 7.137251,-33.40498 17.390155,-71.640272 l 18.641645,-69.518716 19.108097,0 19.10809,0 1.53973,9.931245 c 0.84685,5.462185 2.35262,19.137703 3.34614,30.390039 0.99352,11.252337 2.6317,19.948736 3.64038,19.325335 1.00869,-0.623402 5.80181,-14.29892 10.65138,-30.39004 l 8.81741,-29.256579 14.14844,0 c 7.78165,0 14.16472,0.893812 14.1846,1.986249 0.0199,1.092437 -8.58285,32.531896 -19.11717,69.865465 l -19.15332,67.879214 -15.94609,1.44594 c -8.77036,0.79527 -16.29986,1.09218 -16.73223,0.65981 -0.43237,-0.43237 -2.58557,-16.73183 -4.78488,-36.22101 -2.1993,-19.489177 -4.313072,-36.544141 -4.69726,-37.899918 -0.384189,-1.355776 -5.125466,12.945217 -10.53617,31.779988 -5.410701,18.83476 -10.823828,36.03265 -12.029169,38.21753 -2.353694,4.26645 -25.397343,7.14544 -27.579778,3.44572 z"
       id="path4203"
       inkscape:connector-curvature="0"
       transform="translate(0,861.36216)" />
    <path
       style="opacity:1;fill:#ffffff;fill-opacity:1;fill-rule:nonzero;stroke:none;stroke-width:0;stroke-linecap:butt;stroke-linejoin:miter;stroke-miterlimit:4;stroke-dasharray:none;stroke-dashoffset:0;stroke-opacity:1"
       d="m 606.65242,152.07786 c -0.63605,-1.15865 7.45993,-33.688 17.99108,-72.287435 L 643.79105,9.6096255 682.49366,8.8768288 c 32.96736,-0.624205 39.73299,-0.057667 45.65578,3.8230962 6.37247,4.175401 6.83582,5.674269 5.54801,17.946955 -2.11631,20.168065 -11.76637,43.639074 -19.36574,47.101578 -6.08782,2.773794 -6.17246,3.142601 -1.82404,7.947557 4.90137,5.415953 4.26068,9.408271 -8.62094,53.719485 l -4.22347,14.52822 -18.52886,0 c -16.40384,0 -18.37146,-0.53153 -17.15638,-4.63458 7.30907,-24.68104 12.14285,-49.474642 10.05304,-51.564451 -1.3631,-1.363094 -5.83808,-2.087246 -9.94441,-1.60923 -7.04653,0.820289 -7.92159,2.431635 -15.57308,28.676611 l -8.10704,27.80749 -16.29882,0.78246 c -8.96436,0.43036 -16.81924,-0.16552 -17.45529,-1.32416 z m 82.44831,-92.812008 c 1.62023,-4.005603 3.2545,-10.262287 3.63171,-13.903744 0.60974,-5.886204 -0.4161,-6.71203 -9.24541,-7.442779 -5.46218,-0.452073 -9.94414,0.143804 -9.95991,1.324166 -0.0159,1.180364 -1.74639,7.806925 -3.84582,14.725692 l -3.81716,12.579578 10.14536,0 c 8.58795,0 10.59757,-1.117991 13.09123,-7.282913 z"
       id="path4209"
       inkscape:connector-curvature="0"
       transform="translate(0,861.36216)" />
    <path
       style="opacity:1;fill:#ffffff;fill-opacity:1;fill-rule:nonzero;stroke:none;stroke-width:0;stroke-linecap:butt;stroke-linejoin:miter;stroke-miterlimit:4;stroke-dasharray:none;stroke-dashoffset:0;stroke-opacity:1"
       d="m 720.5233,111.01875 c 6.59136,-22.273618 15.74292,-53.606731 20.33679,-69.62914 l 8.35249,-29.131652 18.00503,-0.788065 c 16.27336,-0.712271 17.87108,-0.330209 16.61234,3.972498 -7.24055,24.750149 -9.9576,35.779107 -9.04036,36.696341 0.59796,0.597961 9.3484,-8.347294 19.44542,-19.878347 l 18.35821,-20.965551 16.70837,-0.180521 c 19.44376,-0.210075 20.04937,-2.9135848 -7.07859,31.599463 -10.87659,13.837535 -20.77207,26.475368 -21.98995,28.084071 -1.79239,2.367566 4.97072,43.082893 12.38143,74.538793 1.35889,5.76803 0.77818,5.95875 -18.14322,5.95875 l -19.54704,0 -4.76636,-27.80749 c -2.6215,-15.29411 -5.53506,-27.807483 -6.47459,-27.807483 -0.93953,0 -5.25744,12.215433 -9.59535,27.145403 l -7.88711,27.1454 -18.83091,0.77251 -18.8309,0.77251 11.9843,-40.49749 z"
       id="path4211"
       inkscape:connector-curvature="0"
       transform="translate(0,861.36216)" />
    <path
       style="fill:#000000"
       d="m 495.5279,1051.0935 c -3.0231,-0.6736 -7.3065,-2.1706 -9.51865,-3.3267 -4.45776,-2.3296 -11.78585,-9.7716 -15.33798,-15.5765 l -2.30702,-3.7701 -6.15579,4.8402 c -3.38568,2.662 -10.04303,7.8515 -14.79408,11.5321 l -8.63829,6.6921 -22.65946,0 -22.65947,0 0.7184,-2.2535 c 0.39512,-1.2394 4.64516,-16.2631 9.44453,-33.3859 l 8.72615,-31.13238 -3.7657,-32.26809 c -2.07113,-17.74744 -3.92984,-32.41685 -4.13048,-32.59867 -0.20063,-0.18183 -11.34573,22.31583 -24.76688,49.9948 l -24.40209,50.32544 -20.63108,15.6591 -20.63109,15.6592 -20.57352,0 -20.57352,0 1.94611,-7.6134 c 1.07037,-4.1874 1.81143,-7.9765 1.64682,-8.4204 -0.16461,-0.4438 -5.6711,2.9822 -12.23664,7.6134 l -11.93733,8.4204 -19.89088,0 -19.89088,0 0.69593,-6.0093 c 0.38277,-3.3052 0.41119,-6.0094 0.0632,-6.0094 -0.34803,0 -4.30896,2.7042 -8.80208,6.0094 l -8.1693,6.0093 -40.10492,0 -40.10492,0 -1.13837,-2.5039 c -1.4414,-3.1704 -3.20608,-3.1704 -6.17807,0 l -2.34716,2.5039 -20.2456,0 c -22.86196,0 -20.68697,0.8944 -21.92132,-9.014 -0.37742,-3.0297 -0.87591,-5.8299 -1.10774,-6.2227 -0.23184,-0.3927 -5.23975,2.8735 -11.12869,7.2582 l -10.70717,7.9722 -20.65643,0 -20.65644,0 0.87908,-3.2551 c 0.4835,-1.7903 9.89131,-36.5229 20.90628,-77.18369 11.01496,-40.66075 20.0272,-74.07836 20.0272,-74.26136 0,-0.18301 8.77109,-7.37397 19.4913,-15.97992 l 19.49132,-15.64718 23.22281,0.26884 23.22281,0.26884 0.86672,4.75741 c 0.4767,2.61658 1.17781,4.75742 1.55803,4.75742 0.38021,0 3.59202,-2.14084 7.13734,-4.75742 l 6.44604,-4.75741 81.57756,-0.2989 81.57755,-0.2989 0.6904,5.53793 0.69041,5.53792 6.57544,-4.98864 6.57544,-4.98863 22.28917,0 22.28918,0 0.29752,6.01733 0.29753,6.01733 8.40854,-6.01733 8.40854,-6.01733 21.88984,0 21.88984,0 -0.70418,2.25351 c -0.38729,1.23943 -0.9561,2.92309 -1.264,3.74146 -0.3079,0.81837 1.77858,-0.1957 4.63664,-2.25351 l 5.19646,-3.74146 24.48232,0 24.48233,0 0.0576,4.25663 c 0.0317,2.34115 0.36897,5.91536 0.74953,7.9427 l 0.69194,3.68607 9.47233,-7.6647 c 8.49857,-6.87677 10.0396,-7.73607 14.99059,-8.35897 8.7031,-1.09495 45.77852,-1.00351 46.15945,0.11385 0.19494,0.57183 2.9895,0.14747 6.73715,-1.02305 8.32583,-2.60044 24.71812,-4.3636 33.57092,-3.61088 10.63591,0.90431 21.7604,4.13169 27.97535,8.11605 3.04836,1.95427 5.78557,3.55323 6.0827,3.55323 0.29713,0 2.60166,-1.57746 5.12117,-3.50547 l 4.58095,-3.50546 42.57949,0.006 c 44.92417,0.006 42.90346,-0.17695 51.02763,4.63263 l 3.0285,1.79289 3.79786,-3.71663 3.79786,-3.71662 24.75969,0 c 23.11321,0 24.72499,0.11655 24.23786,1.75273 -1.53715,5.16284 -2.77464,11.27087 -2.46456,12.16445 0.1943,0.5599 4.50774,-2.12481 9.58541,-5.96603 l 9.23215,-6.98404 24.8005,0.26761 24.80051,0.26762 -23.33666,29.54605 c -12.83515,16.25032 -25.1003,31.82306 -27.25588,34.60609 l -3.91922,5.06006 8.94213,41.95113 c 4.91817,23.07315 8.83926,42.04205 8.71351,42.15325 -0.12574,0.1112 -8.95295,7.2377 -19.61603,15.8368 l -19.38741,15.6346 -24.75336,0 -24.75337,0 -2.2158,-6.7605 c -1.2187,-3.7183 -2.35837,-6.927 -2.53263,-7.1305 -0.17425,-0.2034 -4.71496,2.8388 -10.09046,6.7606 l -9.77362,7.1304 -44.73949,0 c -35.12833,0 -44.73831,-0.2689 -44.73393,-1.2519 0.003,-0.6886 0.48557,-2.9844 1.07222,-5.1017 0.58666,-2.1174 0.89444,-4.0224 0.68396,-4.2333 -0.21049,-0.211 -3.9212,2.0848 -8.24603,5.1017 l -7.86334,5.4852 -21.30833,0 c -11.71958,0 -21.30832,-0.1771 -21.30832,-0.3936 0,-0.2165 0.71468,-3.8571 1.58818,-8.0901 0.8735,-4.2331 1.36309,-7.922 1.08797,-8.1978 -0.27511,-0.2757 -4.05357,1.5528 -8.39657,4.0633 -10.05784,5.8141 -20.10339,9.9625 -29.07842,12.0083 -8.29063,1.8898 -24.17521,1.9979 -32.15916,0.2188 z m 65.0987,-33.231 c 12.48544,-2.3494 21.77827,-7.2241 30.28469,-15.8865 3.8788,-3.94996 7.61546,-8.28548 8.30369,-9.63454 1.75352,-3.4372 24.83004,-85.39727 26.83149,-95.29649 2.23956,-11.07686 0.94665,-17.18401 -4.93578,-23.31437 -5.94154,-6.19195 -9.62477,-7.02329 -31.14203,-7.02912 -16.26539,-0.004 -18.63652,0.21936 -24.7507,2.33571 -12.37627,4.28389 -22.12354,12.5123 -29.26693,24.70643 -1.38646,2.36676 -7.52287,23.0954 -14.96879,50.56424 -13.35753,49.27741 -14.46102,55.37598 -11.16866,61.72454 1.68001,3.2395 9.04707,8.5741 14.44549,10.4601 8.8738,3.1002 24.12025,3.6745 36.36753,1.37 z m -13.63774,-29.48371 c -1.06177,-1.17582 -1.75789,-3.35897 -1.6766,-5.25819 0.0764,-1.78618 5.43338,-21.45628 11.90428,-43.71134 13.35935,-45.94614 12.45739,-44.19284 23.13263,-44.9667 5.01051,-0.36323 6.21517,-0.10933 8.00842,1.68785 1.16091,1.16345 2.11076,3.18708 2.11076,4.49696 0,2.00656 -4.72778,19.91841 -18.00871,68.22846 -1.21149,4.40687 -2.55011,8.46319 -2.9747,9.01405 -0.4246,0.55086 -1.08185,2.45417 -1.46056,4.22956 -0.37871,1.7754 -2.03916,4.36694 -3.68988,5.75898 -2.51141,2.11784 -4.02388,2.53098 -9.26569,2.53098 -5.00293,0 -6.62995,-0.40488 -8.07995,-2.01061 z M 85.78226,974.11403 c 6.24016,-21.6212 11.49186,-39.49907 11.67045,-39.7286 0.17859,-0.22951 0.50882,-0.22951 0.73385,0 0.22503,0.22953 2.3431,18.11811 4.70683,39.7524 l 4.29767,39.33507 15.92562,-0.2742 15.92563,-0.2742 19.84182,-69.60848 c 10.913,-38.28467 19.84198,-69.94651 19.84217,-70.35965 1.9e-4,-0.41315 -6.27641,-0.75117 -13.94797,-0.75117 l -13.9483,0 -2.97812,9.76522 c -1.63796,5.37087 -6.16969,20.33442 -10.0705,33.25236 -3.90081,12.91793 -7.29143,23.68661 -7.53469,23.93042 -0.86442,0.86632 -1.36044,-2.6885 -4.45021,-31.89338 -1.71922,-16.25032 -3.36811,-30.79528 -3.66418,-32.32213 l -0.53832,-2.77607 -18.60952,0.27217 -18.60953,0.27219 -18.2368,68.10614 C 56.10792,978.27051 47.6471,1009.9324 47.33634,1011.1718 l -0.56503,2.2535 13.8326,0 13.83262,0 11.34573,-39.31127 z m 142.41445,37.55857 c 0.8781,-2.1537 7.49419,-21.55891 7.49419,-21.98077 0,-0.1672 -9.21921,-0.304 -20.48715,-0.304 -15.73805,0 -20.48081,-0.29021 -20.45979,-1.25195 0.0151,-0.68857 2.17035,-8.68854 4.78957,-17.77771 l 4.76223,-16.52576 19.14142,-0.27182 19.14143,-0.27183 2.60198,-8.74222 c 1.43109,-4.80822 3.02938,-10.04891 3.55176,-11.64597 0.52237,-1.59707 0.94978,-3.06185 0.94978,-3.25507 0,-0.19324 -8.54464,-0.35133 -18.98809,-0.35133 -14.5359,0 -18.98295,-0.29355 -18.96619,-1.25195 0.0121,-0.68858 2.18033,-8.01249 4.81842,-16.27537 l 4.79653,-15.02341 21.16528,-0.27031 21.16527,-0.27031 -0.008,4.77733 c -0.004,2.62753 -1.5782,27.05553 -3.49781,54.28444 -1.91922,27.22891 -3.48981,51.45421 -3.48981,53.83391 l 0,4.3268 15.8304,0 15.83041,0 18.29937,-39.31127 c 17.30894,-37.18363 19.99594,-42.59031 19.99594,-40.23524 0,1.50159 -6.87001,69.38301 -7.57173,74.81501 l -0.61794,4.7834 15.71967,-0.2764 15.71967,-0.2763 33.25428,-68.89452 c 18.28986,-37.89199 33.50672,-69.55384 33.81527,-70.35966 0.47613,-1.24349 -1.59025,-1.46512 -13.66012,-1.46512 l -14.22112,0 -17.47762,35.10129 c -9.61268,19.30571 -17.61653,34.43798 -17.78632,33.62727 -0.16979,-0.81071 1.06693,-15.46232 2.74828,-32.55913 1.68134,-17.09679 3.05699,-32.22906 3.05699,-33.62725 l 0,-2.54218 -15.74013,0.0188 -15.74012,0.0188 -16.48068,34.76101 c -9.06436,19.11856 -16.59692,34.09597 -16.739,33.28313 -0.14209,-0.81284 1.21956,-16.46375 3.02588,-34.7798 l 3.28421,-33.30189 -54.22482,0 -54.22482,0 -1.50056,5.25819 c -4.20199,14.72438 -36.53145,134.21726 -36.53145,135.02386 0,0.5658 14.43194,0.9381 36.3702,0.9381 33.69979,0 36.42267,-0.1287 37.08483,-1.7528 z m 244.673,-3.0047 c 0.77231,-2.6166 4.45513,-15.33302 8.18404,-28.25875 l 6.77985,-23.50133 28.33179,-41.85762 c 15.58249,-23.02169 28.33179,-42.07978 28.33179,-42.35132 0,-0.27152 -7.1608,-0.49368 -15.9129,-0.49368 l -15.91289,0 -15.80525,25.20049 c -14.69443,23.42938 -15.85552,24.99557 -16.52077,22.28473 -0.39355,-1.60367 -1.24964,-12.9439 -1.90244,-25.20049 l -1.18691,-22.28473 -16.8668,0 -16.8668,0 0.50591,2.25351 c 0.87133,3.8813 10.52527,77.40834 10.52527,80.16337 0,1.96876 -10.65706,43.58118 -14.61079,57.05052 -0.47489,1.6178 0.71855,1.7527 15.5041,1.7527 l 16.01861,0 1.40419,-4.7574 z m 169.58453,-6.5102 c 1.80159,-6.19712 5.59256,-19.15482 8.42435,-28.79484 l 5.14873,-17.52732 7.94497,-0.25587 c 9.97345,-0.32119 12.84357,0.93795 13.19216,5.78748 0.13767,1.91534 -2.60097,14.2993 -6.08588,27.5199 l -6.3362,24.03745 16.9715,0.2747 c 9.33431,0.151 17.12834,0.1174 17.32005,-0.075 0.43805,-0.439 14.94955,-52.18432 15.80672,-56.36381 0.99457,-4.84944 -0.85567,-8.17382 -5.92229,-10.64077 -2.48681,-1.21082 -4.49727,-2.44971 -4.46771,-2.7531 0.0296,-0.30337 2.68443,-1.8401 5.89969,-3.41494 10.43962,-5.11337 11.95345,-7.53434 18.37598,-29.38762 3.10848,-10.57683 5.65177,-20.87487 5.65177,-22.8845 0,-5.49896 -2.70303,-10.20899 -7.4633,-13.00481 l -4.2051,-2.46973 -38.94021,0 -38.94023,0 -18.83962,69.35809 c -10.3618,38.14696 -19.04337,69.92149 -19.29238,70.61009 -0.35053,0.9692 3.26543,1.2519 16.01431,1.2519 l 16.46708,0 3.27561,-11.2675 z m 26.46706,-88.63812 5.20808,-16.77614 8.24914,-0.29269 c 13.69403,-0.48589 15.43741,2.42758 10.66443,17.82196 -2.8836,9.30057 -5.08431,13.65384 -7.5788,14.99177 -1.05748,0.56719 -6.38405,1.03125 -11.83681,1.03125 l -9.91412,0 5.20808,-16.77615 z m 80.63038,83.37996 c 2.66485,-8.81374 6.92891,-22.90612 9.47568,-31.31641 2.54677,-8.41029 4.86408,-15.05733 5.14958,-14.7712 0.2855,0.28612 3.0503,14.3785 6.14398,31.31641 l 5.62491,30.79616 18.69136,0.2725 c 10.28025,0.1499 18.69137,0.074 18.69137,-0.1689 0,-0.2428 -3.59775,-17.8948 -7.99499,-39.22669 -4.39724,-21.3319 -7.99498,-38.91626 -7.99498,-39.07635 0,-0.30562 45.13861,-57.73434 47.7626,-60.76713 1.43588,-1.6596 0.66415,-1.75273 -14.5226,-1.75273 l -16.03907,0 -20.74195,23.0359 c -11.40807,12.66974 -21.06336,23.0359 -21.4562,23.0359 -0.39284,0 1.84851,-9.12673 4.98077,-20.28161 3.13227,-11.15488 6.00275,-21.52104 6.37885,-23.0359 l 0.68382,-2.75429 -16.94103,0 c -15.26775,0 -16.99297,0.17312 -17.46687,1.75273 -5.14603,17.15279 -40.58316,138.42027 -40.58316,138.87737 0,0.3499 7.94538,0.5132 17.65639,0.3627 l 17.65637,-0.2735 4.84517,-16.02496 z m 65.77562,53.77956 c 0,-0.443 9.1744,-33.9077 20.38755,-74.36591 11.21316,-40.45822 20.90645,-75.50198 21.54064,-77.87504 1.0624,-3.97534 2.58111,-5.4522 19.31157,-18.77927 l 18.1585,-14.46461 38.62601,0 c 32.21299,0 39.3497,0.25589 42.98483,1.54125 4.90047,1.73277 9.01238,5.28567 12.126,10.47748 1.15626,1.92801 2.2144,3.65852 2.35141,3.84559 0.13702,0.18708 3.0397,-1.55907 6.45041,-3.8803 7.56898,-5.15128 18.39698,-10.24441 26.43238,-12.43288 3.2979,-0.89821 12.0975,-1.90434 19.5545,-2.23584 21.9497,-0.97574 33.6561,2.62795 41.8603,12.88617 l 4.4504,5.56472 7.0424,-5.26721 c 13.2851,-9.93651 23.1909,-13.35775 41.0209,-14.16782 14.5387,-0.66055 23.5587,0.98463 33.6959,6.14585 l 6.9266,3.52661 4.3535,-3.00181 4.3535,-3.00181 46.0409,0 c 25.3225,0 46.0245,0.33802 46.0045,0.75117 -0.02,0.41314 -1.9627,7.73706 -4.3168,16.27537 l -4.2804,15.52419 -11.923,10.37177 c -6.5577,5.70447 -13.8426,12.01431 -16.1888,14.02185 l -4.2658,3.65008 -11.529,40.56323 c -6.3408,22.30977 -12.4179,43.58927 -13.5046,47.28777 l -1.9758,6.7245 -19.6742,15.0594 -19.6741,15.0595 -20.8363,0 c -19.3757,0 -20.7996,-0.1229 -20.316,-1.7528 0.8683,-2.9261 5.6109,-22.1083 5.6109,-22.6941 0,-0.301 -3.7102,1.8616 -8.2449,4.8057 -12.0251,7.8074 -22.3908,13.2726 -31.8683,16.8022 -6.7701,2.5213 -10.3484,3.2035 -18.8498,3.5935 -20.4256,0.937 -32.5497,-2.723 -42.5418,-12.8425 -3.2258,-3.2671 -6.2385,-5.9401 -6.6947,-5.9401 -0.4561,0 -4.5924,2.2697 -9.1916,5.0438 -15.8433,9.5562 -30.56925,13.9671 -46.66805,13.9788 -18.56326,0.014 -30.78394,-3.815 -38.98734,-12.2141 -6.96055,-7.1265 -9.07129,-13.6191 -8.65255,-26.6151 l 0.3316,-10.2918 -2.99812,0.6639 c -1.64897,0.3651 -6.3344,0.94 -10.41207,1.2777 l -7.41395,0.6138 -2.65738,7.9918 -2.65739,7.9918 -19.79001,15.2945 -19.79002,15.2945 -21.85621,0 c -12.02092,0 -21.85621,-0.3625 -21.85621,-0.8055 z m 203.2947,-32.7005 c 14.3322,-2.7482 24.8352,-9.4199 32.9302,-20.9179 3.7124,-5.27294 5.3138,-9.37573 11.0089,-28.20487 3.6656,-12.11889 7.2965,-24.28786 8.0687,-27.04215 0.7723,-2.75429 3.7437,-13.3458 6.6032,-23.53668 4.1413,-14.75902 5.2223,-20.15909 5.3129,-26.54136 0.1351,-9.52019 -1.1962,-12.75534 -6.8819,-16.72411 -6.9299,-4.83717 -16.2801,-7.10893 -29.4049,-7.14433 -21.0972,-0.0569 -36.3738,5.44384 -47.87819,17.23969 l -6.46494,6.62875 -13.81648,48.07492 c -11.25638,39.16697 -13.82103,49.26902 -13.84104,54.51926 -0.0411,10.77528 4.38281,17.05098 15.19694,21.55858 8.51122,3.5476 26.54661,4.5101 39.16661,2.0902 z m -12.7281,-26.56041 c -8.50485,-2.69103 -8.41981,-3.64016 4.269,-47.64253 6.0297,-20.90999 11.9033,-39.8619 13.0524,-42.11533 2.5502,-5.00101 7.1323,-7.42079 14.0522,-7.42079 3.985,0 5.5095,0.50231 7.4614,2.45837 1.3492,1.35212 2.453,3.55142 2.453,4.88733 0,2.97809 -18.5275,71.53159 -20.8876,77.2862 -3.1929,7.78502 -4.3389,9.58888 -6.9523,10.94327 -3.8413,1.99076 -9.9298,2.71672 -13.4481,1.60348 z m 113.127,25.41281 c 9.5615,-2.4234 21.625,-8.9959 27.9846,-15.2467 11.8222,-11.61997 17.3992,-32.53133 12.2782,-46.0381 -2.7138,-7.1579 -5.5495,-10.86187 -20.374,-26.61271 -14.9672,-15.9024 -17.8578,-20.79594 -16.1858,-27.40145 1.2478,-4.92959 5.1453,-7.62635 11.0219,-7.62635 4.0114,0 5.104,0.46227 7.5335,3.18741 3.1979,3.58693 3.4125,5.73545 1.4907,14.92646 -0.7202,3.44415 -1.0855,6.48639 -0.8119,6.76054 0.2735,0.27415 7.1523,0.49846 15.2862,0.49846 17.3595,0 15.6163,1.31758 19.4723,-14.71831 2.8278,-11.75999 2.7781,-17.58836 -0.204,-23.88636 -5.137,-10.8493 -27.3709,-16.1032 -49.0571,-11.59234 -5.5934,1.16343 -11.3613,2.56937 -12.8176,3.1243 -7.0427,2.68346 -20.5037,14.17666 -23.5016,20.06598 -5.2629,10.33855 -6.3946,24.45145 -2.6075,32.51531 2.6312,5.60261 13.3304,19.92431 23.6678,31.68118 10.7716,12.25085 12.7557,17.99527 9.0864,26.30847 -2.2025,4.99009 -6.2955,7.61635 -11.8581,7.60886 -3.9083,-0.005 -9.1005,-3.45275 -9.8785,-6.55906 -0.6508,-2.59899 -0.039,-9.89525 1.1929,-14.21959 l 0.6419,-2.25351 -16.631,0 -16.631,0 -1.0372,2.73401 c -1.7656,4.65425 -4.9095,19.20238 -4.9095,22.71866 0,4.44104 2.4536,11.20134 5.5349,15.24994 2.9951,3.9355 13.0583,8.977 20.5701,10.3054 6.7001,1.1848 23.2885,0.359 30.7434,-1.5305 z M 897.96616,995.3972 c 2.9287,-9.64003 5.78769,-19.21745 6.35333,-21.28317 l 1.02843,-3.75586 16.26975,0 c 17.97325,0 22.85966,-0.9321 32.9483,-6.28501 3.2023,-1.6991 7.30666,-4.82714 9.12079,-6.95119 4.82636,-5.65086 11.07271,-22.4277 16.66145,-44.75035 4.21832,-16.84891 4.82175,-20.46252 4.25515,-25.48161 -0.46146,-4.08776 -1.40635,-6.73711 -3.13859,-8.80026 -4.96067,-5.90833 -4.77906,-5.88455 -44.94715,-5.88455 l -36.80989,0 -19.25299,69.1521 c -10.58915,38.03365 -19.50858,69.8196 -19.82096,70.6354 -0.48988,1.2794 1.67106,1.4454 15.71976,1.2076 l 16.28771,-0.2758 5.32491,-17.5273 z m 17.70494,-51.23041 c -2.06403,-1.0032 -2.00367,-1.3257 4.52175,-24.16278 l 6.6137,-23.146 3.47323,-0.90703 c 4.66537,-1.21837 12.26952,-0.39689 15.40891,1.66462 3.99343,2.62233 3.34908,8.45131 -3.34039,30.21771 -2.96925,9.66148 -5.36093,13.24247 -10.36483,15.51895 -4.56676,2.07761 -12.86154,2.49179 -16.31237,0.81453 z m 306.4171,10.66719 16.5056,-58.09054 11.9956,-0.27936 11.9955,-0.27936 3.2289,-11.25375 c 1.7759,-6.18956 3.2289,-11.59018 3.2289,-12.00139 0,-0.4112 -17.6204,-0.62973 -39.1562,-0.48562 l -39.1564,0.26202 -2.2203,8.18102 c -1.2212,4.49957 -2.5215,9.5549 -2.8895,11.23409 l -0.6691,3.05306 10.9059,0.28386 10.9058,0.28387 -16.3252,58.09053 c -8.9788,31.9498 -16.3275,58.43999 -16.3303,58.86719 0,0.4271 7.0779,0.6525 15.735,0.5007 l 15.7401,-0.2758 16.5056,-58.09052 z"
       id="path4201"
       inkscape:connector-curvature="0" />
  </g>
</svg>
