<?xml version="1.0" encoding="utf-8"?>
<!-- Generator: Adobe Illustrator 19.2.1, SVG Export Plug-In . SVG Version: 6.00 Build 0)  -->
<svg version="1.1" id="Layer_1" xmlns="http://www.w3.org/2000/svg" xmlns:xlink="http://www.w3.org/1999/xlink" x="0px" y="0px"
	 viewBox="0 0 369.6 55.2" style="enable-background:new 0 0 369.6 55.2;" xml:space="preserve">
<style type="text/css">
	.st0{fill:#010101;}
</style>
<g id="layer1_1_" transform="translate(0,-861.36216)" inkscape:groupmode="layer" inkscape:label="Layer 1">
	<path id="path4201_1_" inkscape:connector-curvature="0" class="st0" d="M143.2,916.2c-0.9-0.2-2.1-0.6-2.8-1
		c-1.3-0.7-3.4-2.8-4.4-4.5l-0.7-1.1l-1.8,1.4c-1,0.8-2.9,2.3-4.3,3.3l-2.5,1.9h-6.5h-6.5l0.2-0.7c0.1-0.4,1.3-4.7,2.7-9.6l2.5-9
		l-1.1-9.3c-0.6-5.1-1.1-9.4-1.2-9.4c-0.1-0.1-3.3,6.4-7.2,14.4l-7.1,14.5l-6,4.5l-6,4.5h-5.9h-5.9l0.6-2.2c0.3-1.2,0.5-2.3,0.5-2.4
		s-1.6,0.9-3.5,2.2l-3.5,2.4h-5.7h-5.7l0.2-1.7c0.1-1,0.1-1.7,0-1.7c-0.1,0-1.2,0.8-2.5,1.7l-2.4,1.7H45.1H33.6l-0.3-0.7
		c-0.4-0.9-0.9-0.9-1.8,0l-0.7,0.7h-5.9c-6.6,0-6,0.3-6.3-2.6c-0.1-0.9-0.3-1.7-0.3-1.8c-0.1-0.1-1.5,0.8-3.2,2.1l-3.1,2.3H6H0
		l0.3-0.9c0.1-0.5,2.9-10.6,6-22.3c3.2-11.8,5.8-21.4,5.8-21.5c0-0.1,2.5-2.1,5.6-4.6l5.6-4.5l6.7,0.1l6.7,0.1L37,864
		c0.1,0.8,0.3,1.4,0.5,1.4c0.1,0,1-0.6,2.1-1.4l1.9-1.4l23.6-0.1l23.6-0.1l0.2,1.6l0.2,1.6l1.9-1.4l1.9-1.4h6.4h6.4l0.1,1.7l0.1,1.7
		l2.4-1.7l2.4-1.7h6.3h6.3l-0.2,0.7c-0.1,0.4-0.3,0.8-0.4,1.1c-0.1,0.2,0.5-0.1,1.3-0.7l1.5-1.1h7.1h7.1l0,1.2
		c0,0.7,0.1,1.7,0.2,2.3l0.2,1.1l2.7-2.2c2.5-2,2.9-2.2,4.3-2.4c2.5-0.3,13.2-0.3,13.3,0c0.1,0.2,0.9,0,1.9-0.3
		c2.4-0.8,7.1-1.3,9.7-1c3.1,0.3,6.3,1.2,8.1,2.3c0.9,0.6,1.7,1,1.8,1c0.1,0,0.8-0.5,1.5-1l1.3-1l12.3,0c13,0,12.4-0.1,14.7,1.3
		l0.9,0.5l1.1-1.1l1.1-1.1h7.2c6.7,0,7.1,0,7,0.5c-0.4,1.5-0.8,3.3-0.7,3.5c0.1,0.2,1.3-0.6,2.8-1.7l2.7-2l7.2,0.1l7.2,0.1l-6.7,8.5
		c-3.7,4.7-7.3,9.2-7.9,10l-1.1,1.5l2.6,12.1c1.4,6.7,2.6,12.2,2.5,12.2c0,0-2.6,2.1-5.7,4.6l-5.6,4.5h-7.2H212l-0.6-2
		c-0.4-1.1-0.7-2-0.7-2.1c-0.1-0.1-1.4,0.8-2.9,2l-2.8,2.1H192c-10.2,0-12.9-0.1-12.9-0.4c0-0.2,0.1-0.9,0.3-1.5
		c0.2-0.6,0.3-1.2,0.2-1.2c-0.1-0.1-1.1,0.6-2.4,1.5l-2.3,1.6h-6.2c-3.4,0-6.2-0.1-6.2-0.1s0.2-1.1,0.5-2.3c0.3-1.2,0.4-2.3,0.3-2.4
		c-0.1-0.1-1.2,0.4-2.4,1.2c-2.9,1.7-5.8,2.9-8.4,3.5C150.1,916.7,145.5,916.7,143.2,916.2L143.2,916.2z M162,906.6
		c3.6-0.7,6.3-2.1,8.8-4.6c1.1-1.1,2.2-2.4,2.4-2.8c0.5-1,7.2-24.7,7.8-27.5c0.6-3.2,0.3-5-1.4-6.7c-1.7-1.8-2.8-2-9-2
		c-4.7,0-5.4,0.1-7.2,0.7c-3.6,1.2-6.4,3.6-8.5,7.1c-0.4,0.7-2.2,6.7-4.3,14.6c-3.9,14.2-4.2,16-3.2,17.8c0.5,0.9,2.6,2.5,4.2,3
		C154.1,907.1,158.5,907.3,162,906.6z M158.1,898.1c-0.3-0.3-0.5-1-0.5-1.5c0-0.5,1.6-6.2,3.4-12.6c3.9-13.3,3.6-12.8,6.7-13
		c1.4-0.1,1.8,0,2.3,0.5c0.3,0.3,0.6,0.9,0.6,1.3c0,0.6-1.4,5.8-5.2,19.7c-0.4,1.3-0.7,2.4-0.9,2.6c-0.1,0.2-0.3,0.7-0.4,1.2
		c-0.1,0.5-0.6,1.3-1.1,1.7c-0.7,0.6-1.2,0.7-2.7,0.7C159,898.7,158.5,898.5,158.1,898.1L158.1,898.1z M24.8,894
		c1.8-6.2,3.3-11.4,3.4-11.5c0.1-0.1,0.1-0.1,0.2,0c0.1,0.1,0.7,5.2,1.4,11.5l1.2,11.4l4.6-0.1l4.6-0.1l5.7-20.1
		c3.2-11.1,5.7-20.2,5.7-20.3c0-0.1-1.8-0.2-4-0.2h-4l-0.9,2.8c-0.5,1.6-1.8,5.9-2.9,9.6c-1.1,3.7-2.1,6.8-2.2,6.9
		c-0.2,0.3-0.4-0.8-1.3-9.2c-0.5-4.7-1-8.9-1.1-9.3l-0.2-0.8l-5.4,0.1l-5.4,0.1l-5.3,19.7c-2.9,10.8-5.3,20-5.4,20.3l-0.2,0.7h4h4
		L24.8,894z M66,904.8c0.3-0.6,2.2-6.2,2.2-6.4c0,0-2.7-0.1-5.9-0.1c-4.5,0-5.9-0.1-5.9-0.4c0-0.2,0.6-2.5,1.4-5.1l1.4-4.8l5.5-0.1
		l5.5-0.1l0.8-2.5c0.4-1.4,0.9-2.9,1-3.4c0.2-0.5,0.3-0.9,0.3-0.9s-2.5-0.1-5.5-0.1c-4.2,0-5.5-0.1-5.5-0.4c0-0.2,0.6-2.3,1.4-4.7
		l1.4-4.3l6.1-0.1l6.1-0.1l0,1.4c0,0.8-0.5,7.8-1,15.7c-0.6,7.9-1,14.9-1,15.6v1.3h4.6h4.6l5.3-11.4c5-10.7,5.8-12.3,5.8-11.6
		c0,0.4-2,20.1-2.2,21.6l-0.2,1.4l4.5-0.1l4.5-0.1l9.6-19.9c5.3-11,9.7-20.1,9.8-20.3c0.1-0.4-0.5-0.4-3.9-0.4h-4.1l-5.1,10.1
		c-2.8,5.6-5.1,10-5.1,9.7c0-0.2,0.3-4.5,0.8-9.4c0.5-4.9,0.9-9.3,0.9-9.7v-0.7l-4.5,0l-4.5,0l-4.8,10c-2.6,5.5-4.8,9.9-4.8,9.6
		c0-0.2,0.4-4.8,0.9-10.1l0.9-9.6H71.4H55.7l-0.4,1.5c-1.2,4.3-10.6,38.8-10.6,39c0,0.2,4.2,0.3,10.5,0.3
		C65,905.3,65.8,905.3,66,904.8L66,904.8z M136.7,903.9c0.2-0.8,1.3-4.4,2.4-8.2l2-6.8l8.2-12.1c4.5-6.7,8.2-12.2,8.2-12.2
		s-2.1-0.1-4.6-0.1h-4.6l-4.6,7.3c-4.2,6.8-4.6,7.2-4.8,6.4c-0.1-0.5-0.4-3.7-0.5-7.3l-0.3-6.4h-4.9h-4.9l0.1,0.7
		c0.3,1.1,3,22.4,3,23.2c0,0.6-3.1,12.6-4.2,16.5c-0.1,0.5,0.2,0.5,4.5,0.5h4.6L136.7,903.9L136.7,903.9z M185.7,902.1
		c0.5-1.8,1.6-5.5,2.4-8.3l1.5-5.1l2.3-0.1c2.9-0.1,3.7,0.3,3.8,1.7c0,0.6-0.8,4.1-1.8,8l-1.8,6.9l4.9,0.1c2.7,0,5,0,5,0
		c0.1-0.1,4.3-15.1,4.6-16.3c0.3-1.4-0.2-2.4-1.7-3.1c-0.7-0.3-1.3-0.7-1.3-0.8c0-0.1,0.8-0.5,1.7-1c3-1.5,3.5-2.2,5.3-8.5
		c0.9-3.1,1.6-6,1.6-6.6c0-1.6-0.8-3-2.2-3.8l-1.2-0.7h-11.3h-11.3l-5.4,20c-3,11-5.5,20.2-5.6,20.4c-0.1,0.3,0.9,0.4,4.6,0.4h4.8
		L185.7,902.1L185.7,902.1z M193.3,876.4l1.5-4.8l2.4-0.1c4-0.1,4.5,0.7,3.1,5.2c-0.8,2.7-1.5,3.9-2.2,4.3c-0.3,0.2-1.8,0.3-3.4,0.3
		h-2.9L193.3,876.4L193.3,876.4z M216.6,900.5c0.8-2.5,2-6.6,2.7-9.1c0.7-2.4,1.4-4.4,1.5-4.3s0.9,4.2,1.8,9.1l1.6,8.9l5.4,0.1
		c3,0,5.4,0,5.4,0c0-0.1-1-5.2-2.3-11.3s-2.3-11.2-2.3-11.3c0-0.1,13-16.7,13.8-17.6c0.4-0.5,0.2-0.5-4.2-0.5h-4.6l-6,6.7
		c-3.3,3.7-6.1,6.7-6.2,6.7s0.5-2.6,1.4-5.9s1.7-6.2,1.8-6.7l0.2-0.8h-4.9c-4.4,0-4.9,0.1-5,0.5c-1.5,5-11.7,40-11.7,40.1
		c0,0.1,2.3,0.1,5.1,0.1l5.1-0.1L216.6,900.5L216.6,900.5z M235.6,916.1c0-0.1,2.7-9.8,5.9-21.5c3.2-11.7,6-21.8,6.2-22.5
		c0.3-1.1,0.7-1.6,5.6-5.4l5.2-4.2h11.2c9.3,0,11.4,0.1,12.4,0.4c1.4,0.5,2.6,1.5,3.5,3c0.3,0.6,0.6,1.1,0.7,1.1
		c0,0.1,0.9-0.5,1.9-1.1c2.2-1.5,5.3-3,7.6-3.6c1-0.3,3.5-0.6,5.7-0.6c6.3-0.3,9.7,0.8,12.1,3.7l1.3,1.6l2-1.5
		c3.8-2.9,6.7-3.9,11.9-4.1c4.2-0.2,6.8,0.3,9.7,1.8l2,1l1.3-0.9l1.3-0.9h13.3c7.3,0,13.3,0.1,13.3,0.2c0,0.1-0.6,2.2-1.2,4.7
		l-1.2,4.5l-3.4,3c-1.9,1.6-4,3.5-4.7,4.1l-1.2,1.1l-3.3,11.7c-1.8,6.4-3.6,12.6-3.9,13.7l-0.6,1.9l-5.7,4.4l-5.7,4.4h-6
		c-5.6,0-6,0-5.9-0.5c0.3-0.8,1.6-6.4,1.6-6.6c0-0.1-1.1,0.5-2.4,1.4c-3.5,2.3-6.5,3.8-9.2,4.9c-2,0.7-3,0.9-5.4,1
		c-5.9,0.3-9.4-0.8-12.3-3.7c-0.9-0.9-1.8-1.7-1.9-1.7c-0.1,0-1.3,0.7-2.7,1.5c-4.6,2.8-8.8,4-13.5,4c-5.4,0-8.9-1.1-11.3-3.5
		c-2-2.1-2.6-3.9-2.5-7.7l0.1-3l-0.9,0.2c-0.5,0.1-1.8,0.3-3,0.4l-2.1,0.2l-0.8,2.3l-0.8,2.3l-5.7,4.4l-5.7,4.4H242
		C238.5,916.3,235.6,916.2,235.6,916.1L235.6,916.1z M294.4,906.6c4.1-0.8,7.2-2.7,9.5-6c1.1-1.5,1.5-2.7,3.2-8.2
		c1.1-3.5,2.1-7,2.3-7.8c0.2-0.8,1.1-3.9,1.9-6.8c1.2-4.3,1.5-5.8,1.5-7.7c0-2.8-0.3-3.7-2-4.8c-2-1.4-4.7-2.1-8.5-2.1
		c-6.1,0-10.5,1.6-13.8,5l-1.9,1.9l-4,13.9c-3.3,11.3-4,14.2-4,15.8c0,3.1,1.3,4.9,4.4,6.2C285.5,907,290.7,907.3,294.4,906.6
		L294.4,906.6z M290.7,899c-2.5-0.8-2.4-1.1,1.2-13.8c1.7-6,3.4-11.5,3.8-12.2c0.7-1.4,2.1-2.1,4.1-2.1c1.2,0,1.6,0.1,2.2,0.7
		c0.4,0.4,0.7,1,0.7,1.4c0,0.9-5.4,20.7-6,22.3c-0.9,2.2-1.3,2.8-2,3.2C293.5,899.1,291.7,899.3,290.7,899L290.7,899z M323.4,906.3
		c2.8-0.7,6.2-2.6,8.1-4.4c3.4-3.4,5-9.4,3.5-13.3c-0.8-2.1-1.6-3.1-5.9-7.7c-4.3-4.6-5.2-6-4.7-7.9c0.4-1.4,1.5-2.2,3.2-2.2
		c1.2,0,1.5,0.1,2.2,0.9c0.9,1,1,1.7,0.4,4.3c-0.2,1-0.3,1.9-0.2,2c0.1,0.1,2.1,0.1,4.4,0.1c5,0,4.5,0.4,5.6-4.3
		c0.8-3.4,0.8-5.1-0.1-6.9c-1.5-3.1-7.9-4.7-14.2-3.4c-1.6,0.3-3.3,0.7-3.7,0.9c-2,0.8-5.9,4.1-6.8,5.8c-1.5,3-1.8,7.1-0.8,9.4
		c0.8,1.6,3.9,5.8,6.8,9.2c3.1,3.5,3.7,5.2,2.6,7.6c-0.6,1.4-1.8,2.2-3.4,2.2c-1.1,0-2.6-1-2.9-1.9c-0.2-0.8,0-2.9,0.3-4.1l0.2-0.7
		h-4.8h-4.8l-0.3,0.8c-0.5,1.3-1.4,5.5-1.4,6.6c0,1.3,0.7,3.2,1.6,4.4c0.9,1.1,3.8,2.6,5.9,3C316.5,907.1,321.3,906.8,323.4,906.3
		L323.4,906.3z M259.5,900.1c0.8-2.8,1.7-5.6,1.8-6.2l0.3-1.1h4.7c5.2,0,6.6-0.3,9.5-1.8c0.9-0.5,2.1-1.4,2.6-2
		c1.4-1.6,3.2-6.5,4.8-12.9c1.2-4.9,1.4-5.9,1.2-7.4c-0.1-1.2-0.4-1.9-0.9-2.5c-1.4-1.7-1.4-1.7-13-1.7H260l-5.6,20
		c-3.1,11-5.6,20.2-5.7,20.4c-0.1,0.4,0.5,0.4,4.5,0.3l4.7-0.1L259.5,900.1z M264.6,885.3c-0.6-0.3-0.6-0.4,1.3-7l1.9-6.7l1-0.3
		c1.3-0.4,3.5-0.1,4.5,0.5c1.2,0.8,1,2.4-1,8.7c-0.9,2.8-1.5,3.8-3,4.5C268,885.7,265.6,885.8,264.6,885.3L264.6,885.3z
		 M353.2,888.4l4.8-16.8l3.5-0.1l3.5-0.1l0.9-3.3c0.5-1.8,0.9-3.3,0.9-3.5s-5.1-0.2-11.3-0.1l-11.3,0.1l-0.6,2.4
		c-0.4,1.3-0.7,2.8-0.8,3.2l-0.2,0.9l3.2,0.1l3.2,0.1l-4.7,16.8c-2.6,9.2-4.7,16.9-4.7,17c0,0.1,2,0.2,4.5,0.1l4.5-0.1L353.2,888.4
		L353.2,888.4z"/>
</g>
</svg>
