<?xml version="1.0" encoding="utf-8"?>
<!-- Generator: Adobe Illustrator 19.2.1, SVG Export Plug-In . SVG Version: 6.00 Build 0)  -->
<svg version="1.1"
	 id="svg2" inkscape:version="0.91 r13725" sodipodi:docname="nypost.svg" xmlns:cc="http://creativecommons.org/ns#" xmlns:dc="http://purl.org/dc/elements/1.1/" xmlns:inkscape="http://www.inkscape.org/namespaces/inkscape" xmlns:rdf="http://www.w3.org/1999/02/22-rdf-syntax-ns#" xmlns:sodipodi="http://sodipodi.sourceforge.net/DTD/sodipodi-0.dtd" xmlns:svg="http://www.w3.org/2000/svg"
	 xmlns="http://www.w3.org/2000/svg" xmlns:xlink="http://www.w3.org/1999/xlink" x="0px" y="0px" viewBox="0 0 1279 191"
	 style="enable-background:new 0 0 1279 191;" xml:space="preserve">
<g id="layer1" transform="translate(0,-861.36216)" inkscape:groupmode="layer" inkscape:label="Layer 1">
	<path id="path4201" inkscape:connector-curvature="0" d="M495.5,1051.1c-3-0.7-7.3-2.2-9.5-3.3c-4.5-2.3-11.8-9.8-15.3-15.6
		l-2.3-3.8l-6.2,4.8c-3.4,2.7-10,7.9-14.8,11.5l-8.6,6.7h-22.7h-22.7l0.7-2.3c0.4-1.2,4.6-16.3,9.4-33.4l8.7-31.1l-3.8-32.3
		c-2.1-17.7-3.9-32.4-4.1-32.6c-0.2-0.2-11.3,22.3-24.8,50l-24.4,50.3l-20.6,15.7l-20.6,15.7h-20.6h-20.6l1.9-7.6
		c1.1-4.2,1.8-8,1.6-8.4c-0.2-0.4-5.7,3-12.2,7.6l-11.9,8.4h-19.9h-19.9l0.7-6c0.4-3.3,0.4-6,0.1-6c-0.3,0-4.3,2.7-8.8,6l-8.2,6
		h-40.1h-40.1l-1.1-2.5c-1.4-3.2-3.2-3.2-6.2,0l-2.3,2.5H86.2c-22.9,0-20.7,0.9-21.9-9c-0.4-3-0.9-5.8-1.1-6.2
		c-0.2-0.4-5.2,2.9-11.1,7.3l-10.7,8H20.7H0l0.9-3.3c0.5-1.8,9.9-36.5,20.9-77.2c11-40.7,20-74.1,20-74.3s8.8-7.4,19.5-16l19.5-15.6
		l23.2,0.3l23.2,0.3l0.9,4.8c0.5,2.6,1.2,4.8,1.6,4.8c0.4,0,3.6-2.1,7.1-4.8l6.4-4.8l81.6-0.3l81.6-0.3l0.7,5.5l0.7,5.5l6.6-5l6.6-5
		h22.3h22.3l0.3,6l0.3,6l8.4-6l8.4-6h21.9h21.9l-0.7,2.3c-0.4,1.2-1,2.9-1.3,3.7c-0.3,0.8,1.8-0.2,4.6-2.3l5.2-3.7h24.5h24.5
		l0.1,4.3c0,2.3,0.4,5.9,0.7,7.9l0.7,3.7l9.5-7.7c8.5-6.9,10-7.7,15-8.4c8.7-1.1,45.8-1,46.2,0.1c0.2,0.6,3,0.1,6.7-1
		c8.3-2.6,24.7-4.4,33.6-3.6c10.6,0.9,21.8,4.1,28,8.1c3,2,5.8,3.6,6.1,3.6s2.6-1.6,5.1-3.5l4.6-3.5l42.6,0c44.9,0,42.9-0.2,51,4.6
		l3,1.8l3.8-3.7l3.8-3.7h24.8c23.1,0,24.7,0.1,24.2,1.8c-1.5,5.2-2.8,11.3-2.5,12.2c0.2,0.6,4.5-2.1,9.6-6l9.2-7l24.8,0.3l24.8,0.3
		l-23.3,29.5c-12.8,16.3-25.1,31.8-27.3,34.6l-3.9,5.1l8.9,42c4.9,23.1,8.8,42,8.7,42.2s-9,7.2-19.6,15.8l-19.4,15.6h-24.8h-24.8
		l-2.2-6.8c-1.2-3.7-2.4-6.9-2.5-7.1c-0.2-0.2-4.7,2.8-10.1,6.8l-9.8,7.1h-44.7c-35.1,0-44.7-0.3-44.7-1.3c0-0.7,0.5-3,1.1-5.1
		c0.6-2.1,0.9-4,0.7-4.2c-0.2-0.2-3.9,2.1-8.2,5.1l-7.9,5.5h-21.3c-11.7,0-21.3-0.2-21.3-0.4c0-0.2,0.7-3.9,1.6-8.1
		c0.9-4.2,1.4-7.9,1.1-8.2c-0.3-0.3-4.1,1.6-8.4,4.1c-10.1,5.8-20.1,10-29.1,12C519.4,1052.8,503.5,1052.9,495.5,1051.1
		L495.5,1051.1z M560.6,1017.9c12.5-2.3,21.8-7.2,30.3-15.9c3.9-3.9,7.6-8.3,8.3-9.6c1.8-3.4,24.8-85.4,26.8-95.3
		c2.2-11.1,0.9-17.2-4.9-23.3c-5.9-6.2-9.6-7-31.1-7c-16.3,0-18.6,0.2-24.8,2.3c-12.4,4.3-22.1,12.5-29.3,24.7
		c-1.4,2.4-7.5,23.1-15,50.6c-13.4,49.3-14.5,55.4-11.2,61.7c1.7,3.2,9,8.6,14.4,10.5C533.1,1019.6,548.4,1020.2,560.6,1017.9z
		 M547,988.4c-1.1-1.2-1.8-3.4-1.7-5.3c0.1-1.8,5.4-21.5,11.9-43.7c13.4-45.9,12.5-44.2,23.1-45c5-0.4,6.2-0.1,8,1.7
		c1.2,1.2,2.1,3.2,2.1,4.5c0,2-4.7,19.9-18,68.2c-1.2,4.4-2.6,8.5-3,9c-0.4,0.6-1.1,2.5-1.5,4.2s-2,4.4-3.7,5.8
		c-2.5,2.1-4,2.5-9.3,2.5C550.1,990.4,548.4,990,547,988.4L547,988.4z M85.8,974.1c6.2-21.6,11.5-39.5,11.7-39.7s0.5-0.2,0.7,0
		c0.2,0.2,2.3,18.1,4.7,39.8l4.3,39.3l15.9-0.3l15.9-0.3l19.8-69.6c10.9-38.3,19.8-69.9,19.8-70.4s-6.3-0.8-13.9-0.8h-13.9l-3,9.8
		c-1.6,5.4-6.2,20.3-10.1,33.3c-3.9,12.9-7.3,23.7-7.5,23.9c-0.9,0.9-1.4-2.7-4.5-31.9c-1.7-16.3-3.4-30.8-3.7-32.3l-0.5-2.8
		l-18.6,0.3l-18.6,0.3l-18.2,68.1c-10,37.5-18.5,69.1-18.8,70.4l-0.6,2.3h13.8h13.8L85.8,974.1z M228.2,1011.7
		c0.9-2.2,7.5-21.6,7.5-22c0-0.2-9.2-0.3-20.5-0.3c-15.7,0-20.5-0.3-20.5-1.3c0-0.7,2.2-8.7,4.8-17.8l4.8-16.5l19.1-0.3l19.1-0.3
		l2.6-8.7c1.4-4.8,3-10,3.6-11.6c0.5-1.6,0.9-3.1,0.9-3.3s-8.5-0.4-19-0.4c-14.5,0-19-0.3-19-1.3c0-0.7,2.2-8,4.8-16.3l4.8-15
		l21.2-0.3l21.2-0.3l0,4.8c0,2.6-1.6,27.1-3.5,54.3c-1.9,27.2-3.5,51.5-3.5,53.8v4.3h15.8h15.8l18.3-39.3c17.3-37.2,20-42.6,20-40.2
		c0,1.5-6.9,69.4-7.6,74.8l-0.6,4.8l15.7-0.3l15.7-0.3l33.3-68.9c18.3-37.9,33.5-69.6,33.8-70.4c0.5-1.2-1.6-1.5-13.7-1.5h-14.2
		l-17.5,35.1c-9.6,19.3-17.6,34.4-17.8,33.6s1.1-15.5,2.7-32.6c1.7-17.1,3.1-32.2,3.1-33.6v-2.5l-15.7,0l-15.7,0L311.7,907
		c-9.1,19.1-16.6,34.1-16.7,33.3c-0.1-0.8,1.2-16.5,3-34.8l3.3-33.3H247h-54.2l-1.5,5.3c-4.2,14.7-36.5,134.2-36.5,135
		c0,0.6,14.4,0.9,36.4,0.9C224.8,1013.4,227.5,1013.3,228.2,1011.7L228.2,1011.7z M472.9,1008.7c0.8-2.6,4.5-15.3,8.2-28.3l6.8-23.5
		l28.3-41.9c15.6-23,28.3-42.1,28.3-42.4s-7.2-0.5-15.9-0.5h-15.9l-15.8,25.2c-14.7,23.4-15.9,25-16.5,22.3
		c-0.4-1.6-1.2-12.9-1.9-25.2l-1.2-22.3h-16.9h-16.9l0.5,2.3c0.9,3.9,10.5,77.4,10.5,80.2c0,2-10.7,43.6-14.6,57.1
		c-0.5,1.6,0.7,1.8,15.5,1.8h16L472.9,1008.7L472.9,1008.7z M642.5,1002.2c1.8-6.2,5.6-19.2,8.4-28.8l5.1-17.5l7.9-0.3
		c10-0.3,12.8,0.9,13.2,5.8c0.1,1.9-2.6,14.3-6.1,27.5l-6.3,24l17,0.3c9.3,0.2,17.1,0.1,17.3-0.1c0.4-0.4,14.9-52.2,15.8-56.4
		c1-4.8-0.9-8.2-5.9-10.6c-2.5-1.2-4.5-2.4-4.5-2.8c0-0.3,2.7-1.8,5.9-3.4c10.4-5.1,12-7.5,18.4-29.4c3.1-10.6,5.7-20.9,5.7-22.9
		c0-5.5-2.7-10.2-7.5-13l-4.2-2.5h-38.9h-38.9L626,941.6c-10.4,38.1-19,69.9-19.3,70.6c-0.4,1,3.3,1.3,16,1.3h16.5L642.5,1002.2
		L642.5,1002.2z M668.9,913.5l5.2-16.8l8.2-0.3c13.7-0.5,15.4,2.4,10.7,17.8c-2.9,9.3-5.1,13.7-7.6,15c-1.1,0.6-6.4,1-11.8,1h-9.9
		L668.9,913.5L668.9,913.5z M749.6,996.9c2.7-8.8,6.9-22.9,9.5-31.3c2.5-8.4,4.9-15.1,5.1-14.8s3.1,14.4,6.1,31.3l5.6,30.8l18.7,0.3
		c10.3,0.1,18.7,0.1,18.7-0.2c0-0.2-3.6-17.9-8-39.2s-8-38.9-8-39.1c0-0.3,45.1-57.7,47.8-60.8c1.4-1.7,0.7-1.8-14.5-1.8h-16
		l-20.7,23c-11.4,12.7-21.1,23-21.5,23s1.8-9.1,5-20.3s6-21.5,6.4-23l0.7-2.8h-16.9c-15.3,0-17,0.2-17.5,1.8
		c-5.1,17.2-40.6,138.4-40.6,138.9c0,0.3,7.9,0.5,17.7,0.4l17.7-0.3L749.6,996.9L749.6,996.9z M815.3,1050.7
		c0-0.4,9.2-33.9,20.4-74.4c11.2-40.5,20.9-75.5,21.5-77.9c1.1-4,2.6-5.5,19.3-18.8l18.2-14.5h38.6c32.2,0,39.3,0.3,43,1.5
		c4.9,1.7,9,5.3,12.1,10.5c1.2,1.9,2.2,3.7,2.4,3.8s3-1.6,6.5-3.9c7.6-5.2,18.4-10.2,26.4-12.4c3.3-0.9,12.1-1.9,19.6-2.2
		c21.9-1,33.7,2.6,41.9,12.9l4.5,5.6l7-5.3c13.3-9.9,23.2-13.4,41-14.2c14.5-0.7,23.6,1,33.7,6.1l6.9,3.5l4.4-3l4.4-3h46
		c25.3,0,46,0.3,46,0.8s-2,7.7-4.3,16.3l-4.3,15.5l-11.9,10.4c-6.6,5.7-13.8,12-16.2,14l-4.3,3.7l-11.5,40.6
		c-6.3,22.3-12.4,43.6-13.5,47.3l-2,6.7l-19.7,15.1l-19.7,15.1h-20.8c-19.4,0-20.8-0.1-20.3-1.8c0.9-2.9,5.6-22.1,5.6-22.7
		c0-0.3-3.7,1.9-8.2,4.8c-12,7.8-22.4,13.3-31.9,16.8c-6.8,2.5-10.3,3.2-18.8,3.6c-20.4,0.9-32.5-2.7-42.5-12.8
		c-3.2-3.3-6.2-5.9-6.7-5.9c-0.5,0-4.6,2.3-9.2,5c-15.8,9.6-30.6,14-46.7,14c-18.6,0-30.8-3.8-39-12.2c-7-7.1-9.1-13.6-8.7-26.6
		l0.3-10.3l-3,0.7c-1.6,0.4-6.3,0.9-10.4,1.3l-7.4,0.6l-2.7,8l-2.7,8l-19.8,15.3l-19.8,15.3h-21.9
		C825.2,1051.5,815.3,1051.1,815.3,1050.7L815.3,1050.7z M1018.6,1018c14.3-2.7,24.8-9.4,32.9-20.9c3.7-5.3,5.3-9.4,11-28.2
		c3.7-12.1,7.3-24.3,8.1-27c0.8-2.8,3.7-13.3,6.6-23.5c4.1-14.8,5.2-20.2,5.3-26.5c0.1-9.5-1.2-12.8-6.9-16.7
		c-6.9-4.8-16.3-7.1-29.4-7.1c-21.1-0.1-36.4,5.4-47.9,17.2l-6.5,6.6l-13.8,48.1c-11.3,39.2-13.8,49.3-13.8,54.5
		c0,10.8,4.4,17.1,15.2,21.6C988,1019.4,1006,1020.4,1018.6,1018L1018.6,1018z M1005.9,991.4c-8.5-2.7-8.4-3.6,4.3-47.6
		c6-20.9,11.9-39.9,13.1-42.1c2.6-5,7.1-7.4,14.1-7.4c4,0,5.5,0.5,7.5,2.5c1.3,1.4,2.5,3.6,2.5,4.9c0,3-18.5,71.5-20.9,77.3
		c-3.2,7.8-4.3,9.6-7,10.9C1015.5,991.8,1009.4,992.5,1005.9,991.4L1005.9,991.4z M1119,1016.8c9.6-2.4,21.6-9,28-15.2
		c11.8-11.6,17.4-32.5,12.3-46c-2.7-7.2-5.5-10.9-20.4-26.6c-15-15.9-17.9-20.8-16.2-27.4c1.2-4.9,5.1-7.6,11-7.6
		c4,0,5.1,0.5,7.5,3.2c3.2,3.6,3.4,5.7,1.5,14.9c-0.7,3.4-1.1,6.5-0.8,6.8s7.2,0.5,15.3,0.5c17.4,0,15.6,1.3,19.5-14.7
		c2.8-11.8,2.8-17.6-0.2-23.9c-5.1-10.8-27.4-16.1-49.1-11.6c-5.6,1.2-11.4,2.6-12.8,3.1c-7,2.7-20.5,14.2-23.5,20.1
		c-5.3,10.3-6.4,24.5-2.6,32.5c2.6,5.6,13.3,19.9,23.7,31.7c10.8,12.3,12.8,18,9.1,26.3c-2.2,5-6.3,7.6-11.9,7.6
		c-3.9,0-9.1-3.5-9.9-6.6c-0.7-2.6,0-9.9,1.2-14.2l0.6-2.3h-16.6h-16.6l-1,2.7c-1.8,4.7-4.9,19.2-4.9,22.7c0,4.4,2.5,11.2,5.5,15.2
		c3,3.9,13.1,9,20.6,10.3C1095,1019.5,1111.6,1018.7,1119,1016.8L1119,1016.8z M898,995.4c2.9-9.6,5.8-19.2,6.4-21.3l1-3.8h16.3
		c18,0,22.9-0.9,32.9-6.3c3.2-1.7,7.3-4.8,9.1-7c4.8-5.7,11.1-22.4,16.7-44.8c4.2-16.8,4.8-20.5,4.3-25.5c-0.5-4.1-1.4-6.7-3.1-8.8
		c-5-5.9-4.8-5.9-44.9-5.9h-36.8l-19.3,69.2c-10.6,38-19.5,69.8-19.8,70.6c-0.5,1.3,1.7,1.4,15.7,1.2l16.3-0.3L898,995.4z
		 M915.7,944.2c-2.1-1-2-1.3,4.5-24.2l6.6-23.1l3.5-0.9c4.7-1.2,12.3-0.4,15.4,1.7c4,2.6,3.3,8.5-3.3,30.2
		c-3,9.7-5.4,13.2-10.4,15.5C927.4,945.4,919.1,945.8,915.7,944.2L915.7,944.2z M1222.1,954.8l16.5-58.1l12-0.3l12-0.3l3.2-11.3
		c1.8-6.2,3.2-11.6,3.2-12s-17.6-0.6-39.2-0.5l-39.2,0.3l-2.2,8.2c-1.2,4.5-2.5,9.6-2.9,11.2l-0.7,3.1l10.9,0.3l10.9,0.3l-16.3,58.1
		c-9,31.9-16.3,58.4-16.3,58.9c0,0.4,7.1,0.7,15.7,0.5l15.7-0.3L1222.1,954.8L1222.1,954.8z"/>
</g>
</svg>
